<svg width="160" height="160" viewBox="0 0 160 160" fill="none" xmlns="http://www.w3.org/2000/svg">
<rect y="-0.203491" width="159.32" height="159.32" rx="41" fill="#DD69AA"/>
<path d="M78.7553 31.3669C58.4782 31.3669 40.2665 42.4163 32.1932 59.5083C31.8177 60.3716 32.1932 61.4075 33.1319 61.7528C34.0707 62.0981 35.1972 61.7528 35.5727 60.8895C39.7032 52.2572 46.65 45.1787 55.0987 40.6899C52.4702 43.1069 50.2172 46.0419 48.5275 49.1495C47.7765 50.5307 47.9642 52.2572 49.0907 53.2931C50.7805 55.0195 53.9722 54.1563 54.911 53.2931C55.662 52.6025 55.4742 51.7392 54.911 50.876C53.9722 49.4948 51.907 50.876 51.907 50.876C51.907 50.876 55.2865 41.7257 68.2413 35.8558C70.4943 35.3378 72.5595 35.1652 74.8125 34.9925C72.935 36.719 70.8698 38.2728 68.429 39.654C68.429 39.654 59.7925 44.4881 58.4782 45.524C57.7272 46.2146 57.7272 47.0778 58.2905 47.941C59.2292 49.1496 60.5435 48.459 60.919 48.1137C62.2332 47.2504 70.4943 42.589 70.4943 42.589C75.3758 40.6899 80.445 34.9925 80.445 34.9925C88.8938 35.3378 96.7793 37.5822 103.538 41.5531L98.8446 45.8693C96.0283 48.459 93.5875 50.1854 91.1468 51.394C84.951 54.6742 80.0695 59.5084 76.8778 65.3783C76.1268 66.7595 76.3145 68.486 77.441 69.5219C79.3185 71.0757 82.3225 70.3851 83.2613 69.5219L86.453 66.5869C87.204 65.8963 87.204 64.8604 86.453 64.1698C85.702 63.4792 84.5755 63.4792 83.8245 64.1698L80.2573 67.1048C80.2573 67.1048 83.2613 59.1631 93.0243 54.3289C95.8406 52.9478 98.4691 50.876 101.473 48.1137L106.73 43.2796C107.669 43.9701 108.608 44.6607 109.546 45.3513L103.726 50.7034C101.473 52.6025 99.4078 54.329 96.9671 55.7101L91.5223 58.6451C90.5835 59.1631 90.208 60.1989 90.7713 61.0622C91.5223 62.2707 93.0243 61.9254 93.3998 61.7528L98.8446 58.8178C101.661 57.2639 104.102 55.3648 106.355 53.2931L112.363 47.7684C113.677 48.9769 114.803 50.1854 115.93 51.394L99.4078 66.5869C95.2773 70.3851 92.0855 74.7013 90.0203 79.3627C87.7673 84.1968 84.7633 88.8583 80.8205 93.1744C80.0695 93.865 80.2573 94.9009 81.0083 95.5915C81.947 96.4547 83.2613 95.7641 83.6368 95.4189C87.7673 90.93 90.959 85.9233 93.3998 80.7439C95.2773 76.4277 98.0936 72.6295 102.036 69.0039L118.183 54.1563C120.436 57.2639 122.126 60.5442 123.44 63.9972L114.991 71.9389C111.424 74.5286 108.232 80.7439 108.232 80.7439C105.791 84.5421 102.224 87.8224 98.0936 90.0668C93.5875 92.6565 89.2693 95.5915 85.702 98.8718L80.445 103.706C79.694 104.396 78.5675 104.396 77.8165 103.706C77.441 103.361 76.8778 102.325 77.8165 101.289C78.5675 100.598 78.5675 99.5624 77.8165 98.8718C77.0655 98.1812 75.7513 98.1812 75.188 98.8718C71.9963 102.325 74.0615 105.087 75.188 106.123C78.192 108.885 81.947 107.159 83.0735 106.123L88.3305 101.289C91.71 98.1812 95.6528 95.2462 99.9711 92.8292C104.665 90.2395 108.42 86.6139 111.236 82.4704C111.236 82.4704 114.24 76.773 117.62 74.356L124.566 67.7954C125.317 71.0757 125.693 74.5286 125.693 77.9815C125.693 98.5265 109.922 115.791 89.0815 120.107C90.0203 119.417 90.959 118.899 91.8978 118.381C92.8365 117.863 93.0243 116.827 92.461 115.964C91.8978 115.101 90.7713 114.928 89.8325 115.446C86.2653 117.172 81.947 121.143 81.947 121.143C80.8205 121.143 77.441 121.316 76.8778 121.143L79.5063 118.726C81.947 116.482 84.0123 115.101 86.2653 113.892L91.7101 110.957C94.7141 109.403 97.1548 107.504 99.2201 105.432C99.2201 105.432 102.6 102.325 102.787 102.497C102.787 102.497 99.2201 108.195 96.9671 110.439C96.2161 111.13 96.2161 112.166 96.9671 112.856C97.7181 113.547 98.8446 113.547 99.5956 112.856C102.224 110.266 104.477 107.504 106.167 104.224C106.918 102.843 106.542 101.116 105.604 100.08C103.538 98.5265 100.722 99.2171 99.7833 100.08L96.5916 103.015C94.7141 104.914 92.4611 106.468 89.8325 107.849L84.3878 110.784C81.7593 112.166 79.5063 113.892 76.8778 116.309L71.9963 120.625C63.5475 119.589 55.8497 116.309 49.4662 111.648L54.911 106.641C57.7272 104.051 60.168 102.325 62.6087 101.116C68.8045 97.8359 73.686 93.0018 76.8778 87.1318C77.6288 85.7506 77.6288 84.0242 76.1268 82.8156C75.3758 82.1251 72.184 81.2618 70.4943 82.8156L67.3025 85.7506C65.425 87.6498 63.172 89.2036 60.5435 90.5847L55.0987 93.5197C52.0947 95.0736 49.654 96.9727 47.5887 99.0444L41.7685 104.396C40.8297 103.188 39.891 102.152 39.14 100.944L55.2865 86.0959C59.6047 81.9524 62.6087 77.6362 64.674 73.1474C67.4903 66.7595 71.8085 60.8895 77.441 55.7101L79.5063 53.811C80.6328 52.7751 82.1348 48.9769 79.5063 46.5599C77.2533 44.4881 73.8738 44.4881 71.6208 46.5599L66.3638 51.394C62.9842 54.5016 59.0415 57.4366 54.7232 59.8536C49.8417 62.616 46.0867 66.0689 43.4582 70.2124C43.4582 70.2124 40.0787 76.773 37.2624 78.3268L32.5687 82.643C32.0054 81.2618 31.8177 79.708 31.8177 77.9815C31.8177 76.9457 31.0667 76.2551 29.9402 76.2551C28.8137 76.2551 28.0627 76.9457 28.0627 77.9815C28.0627 103.706 50.7805 124.596 78.7553 124.596C106.73 124.596 129.448 103.706 129.448 77.9815C129.448 52.2572 106.73 31.3669 78.7553 31.3669ZM32.9442 87.1318L39.5155 81.0892C43.4582 78.1542 46.4622 72.2842 46.4622 72.2842C48.903 68.486 52.2825 65.3783 56.6007 62.9613C61.1067 60.3716 65.425 57.4366 68.9923 54.1563L74.2493 49.3222C75.0003 48.6316 75.939 48.6316 76.8778 49.3222C78.0043 50.1854 77.2533 51.394 76.8778 51.7392L74.8125 53.6384C68.8045 59.1631 64.2985 65.3783 61.2945 72.1116C59.417 76.2551 56.6007 80.2259 52.658 84.0242L37.2624 98.1812C35.1972 94.5556 33.6952 90.93 32.9442 87.1318ZM44.2092 107.159L50.2172 101.634C52.0947 99.735 54.3477 98.1812 56.9762 96.8L62.421 93.865C65.425 92.3112 67.8658 90.4121 69.931 88.3403C69.931 88.3403 73.3105 85.4053 73.4983 85.4053C73.4983 85.4053 66.176 95.4189 60.7312 98.1812C57.915 99.5624 55.2865 101.634 52.2825 104.396L46.65 109.576C45.899 108.713 44.9602 108.022 44.2092 107.159Z" fill="white"/>
<path d="M75.7176 75.5354C75.5328 76.1517 75.348 76.8914 75.1632 77.631C74.9783 78.2474 75.7176 78.987 76.6418 79.1103C76.8266 79.1103 78.49 79.2336 78.8597 78.1241C79.0445 77.5077 79.2293 76.8914 79.4141 76.275C79.599 75.6586 79.0445 74.919 78.1204 74.7957C77.0114 74.4259 75.9025 74.7957 75.7176 75.5354Z" fill="white"/>
</svg>
