<svg width="20" height="21" viewBox="0 0 20 21" fill="none" xmlns="http://www.w3.org/2000/svg">
<path d="M19.9378 10.4783C19.9378 9.81994 19.8795 9.19494 19.7795 8.58661H10.3628V12.3449H15.7545C15.5128 13.5783 14.8045 14.6199 13.7545 15.3283V17.8283H16.9711C18.8545 16.0866 19.9378 13.5199 19.9378 10.4783Z" fill="#4285F4"/>
<path d="M10.363 20.2533C13.063 20.2533 15.3213 19.3533 16.9713 17.8283L13.7547 15.3283C12.8547 15.9283 11.713 16.295 10.363 16.295C7.75466 16.295 5.54632 14.5366 4.75466 12.1616H1.43799V14.7366C3.07966 18.0033 6.45466 20.2533 10.363 20.2533Z" fill="#34A853"/>
<path d="M4.75446 12.1616C4.54613 11.5616 4.43779 10.92 4.43779 10.2533C4.43779 9.58662 4.55446 8.94496 4.75446 8.34496V5.76996H1.43779C0.754459 7.11996 0.362793 8.63662 0.362793 10.2533C0.362793 11.87 0.754459 13.3866 1.43779 14.7366L4.75446 12.1616Z" fill="#FBBC05"/>
<path d="M10.363 4.21163C11.838 4.21163 13.1547 4.71996 14.1963 5.71163L17.0463 2.86163C15.3213 1.24496 13.063 0.253296 10.363 0.253296C6.45466 0.253296 3.07966 2.5033 1.43799 5.76996L4.75466 8.34496C5.54632 5.96996 7.75466 4.21163 10.363 4.21163Z" fill="#EA4335"/>
</svg>
