<svg width="18" height="18" viewBox="0 0 18 18" fill="none" xmlns="http://www.w3.org/2000/svg">
<path d="M2.46659 5.73331H2.69992C3.59825 5.73331 4.33325 6.46831 4.33325 7.36665V15.5333C4.33325 16.4316 3.59825 17.1666 2.69992 17.1666H2.46659C1.56825 17.1666 0.833252 16.4316 0.833252 15.5333V7.36665C0.833252 6.46831 1.56825 5.73331 2.46659 5.73331V5.73331ZM8.99992 0.833313C9.89825 0.833313 10.6333 1.56831 10.6333 2.46665V15.5333C10.6333 16.4316 9.89825 17.1666 8.99992 17.1666C8.10159 17.1666 7.36659 16.4316 7.36659 15.5333V2.46665C7.36659 1.56831 8.10159 0.833313 8.99992 0.833313ZM15.5333 10.1666C16.4316 10.1666 17.1666 10.9016 17.1666 11.8V15.5333C17.1666 16.4316 16.4316 17.1666 15.5333 17.1666C14.6349 17.1666 13.8999 16.4316 13.8999 15.5333V11.8C13.8999 10.9016 14.6349 10.1666 15.5333 10.1666V10.1666Z" fill="#DD69AA"/>
</svg>
